<?xml version="1.0" encoding="utf-8"?>
<!-- Generator: Adobe Illustrator 13.0.2, SVG Export Plug-In . SVG Version: 6.00 Build 14948)  -->
<!DOCTYPE svg PUBLIC "-//W3C//DTD SVG 1.1//EN" "http://www.w3.org/Graphics/SVG/1.1/DTD/svg11.dtd" [
	<!ENTITY ns_flows "http://ns.adobe.com/Flows/1.0/">
	<!ENTITY ns_extend "http://ns.adobe.com/Extensibility/1.0/">
	<!ENTITY ns_ai "http://ns.adobe.com/AdobeIllustrator/10.0/">
	<!ENTITY ns_graphs "http://ns.adobe.com/Graphs/1.0/">
]>
<svg version="1.1" id="normal_face_xA0_Image_1_" xmlns:x="&ns_extend;" xmlns:i="&ns_ai;" xmlns:graph="&ns_graphs;"
	 xmlns="http://www.w3.org/2000/svg" xmlns:xlink="http://www.w3.org/1999/xlink" xmlns:a="http://ns.adobe.com/AdobeSVGViewerExtensions/3.0/"
	 x="0px" y="0px" width="84.807px" height="115.428px" viewBox="0 0 84.807 115.428" enable-background="new 0 0 84.807 115.428"
	 xml:space="preserve">
<g>
	<path fill-rule="evenodd" clip-rule="evenodd" d="M62.244,50.233c0.652-0.001,1.124,1.009,1.44,0c0.639,1.065,2.126,0.6,4.08,0.72
		c0.036,0.844,1.184,0.577,0.96,1.68c1.759-0.516,2.263,1.467,2.88,2.4c-0.457,0.103-0.603,0.517-1.2,0.48
		c-0.334,0.017-0.062-0.847-0.239-0.96c-0.067-0.043-0.655,0.435-0.961,0.24c-0.315-0.202-0.232-1.608-1.199-0.72
		c-0.179-0.739,0.658-0.461,0.479-1.2c-0.851-0.051-0.474,1.126-1.439,0.96c0.03-0.43-0.294-0.506-0.24-0.96
		c-2.83-0.051-6.479,0.734-8.88,2.4c-0.431,0.03-0.507-0.294-0.96-0.24c-0.151,0.409-0.726,0.395-0.96,0.72
		c-0.449-0.876-0.283-0.503-1.2-0.24c-0.55-1.87,1.462-2.931,3.12-3.36c0,0.16,0,0.32,0,0.48
		C59.523,51.992,61.066,51.294,62.244,50.233z"/>
	<path fill-rule="evenodd" clip-rule="evenodd" d="M35.604,54.793c-0.822,0.369-1.531-0.306-2.4-0.24
		c-1.118,0.084-2.262,0.75-3.36,0.72c-0.74-0.021-1.42-0.55-2.16-0.48c-1.016,0.096-2.201,0.771-3.12,1.2
		c-3.363-1.241-4.01,2.82-6.48,2.4c0.787-2.253,2.99-3.09,4.32-4.8c0.537,0.075,1.164,0.337,1.68,0.24
		c1.17-0.22,2.314-1.395,3.12-1.44c0.311-0.017,0.768,0.468,0.72,0.48c0.74-0.186,1.293-1.104,1.92-1.2
		c1.269-0.196,2.074,1.22,3.36,0.24c0.907,1.751,3.487,0.658,4.56,1.92c-0.427,1.173-1.937,1.264-3.12,1.68
		C34.853,55.162,35.004,54.752,35.604,54.793z"/>
	<path fill-rule="evenodd" clip-rule="evenodd" d="M68.244,57.673c-1.389,0.079-1.992-1.25-3.359-1.44
		c-1.977-0.274-4.116,0.894-6.24,0.96C60.765,55.375,66.815,55.065,68.244,57.673z"/>
	<path fill-rule="evenodd" clip-rule="evenodd" d="M55.284,56.473c-1.065,1.334-2.041,2.758-2.88,4.32
		c0.128,0.523,0.581,1.553-0.239,1.681c-0.802-0.674-0.645-2.207-0.48-2.88c0.355-1.458,2.481-2.347,2.88-3.36
		C54.952,56.166,54.978,56.46,55.284,56.473z"/>
	<path fill-rule="evenodd" clip-rule="evenodd" d="M26.004,59.113c1.048,0.49,1.674-0.662,2.88-0.96
		c3.33-0.825,7.522,0.327,8.64,2.88c-2.172,0.172-2.012-1.988-3.84-2.16c-0.542,0.179-0.094,1.346-0.24,1.92
		c0.628,0.28,1.033-0.74,0.96,0.24c-0.994,0.162-2.581,0.833-4.08,0.96c-1.238,0.104-3.057,0.403-3.6-0.72c0.48,0,0.96,0,1.44,0
		c-0.276-0.284-0.271-0.849-0.24-1.44c-1.39-0.189-1.491,0.909-2.88,0.72c-0.179,0.74,0.828,0.293,0.48,1.2
		c-1.268,0.068-2.387-0.013-3.12-0.479c0.042-1.078,1.646-0.595,1.44-1.92c1.853-0.708,4.294-2.426,6.96-2.64
		c0.93-0.075,2.675-0.368,3.36,0.72C30.76,57.309,27.92,57.749,26.004,59.113z M28.165,60.793c0.759,1.192,1.628,0.24,2.16,0.24
		c0.341,0,0.406,0.484,0.72,0.479c0.518-0.006,1.232-1.099,1.44-1.199c0.023,0.377-0.032,0.832,0.48,0.72
		c0.568-0.596,0.002-1.413,0-2.16c-1.003-0.123-0.658,1.102-1.2,1.44c-1.167,0.39-2.594,0.396-2.16-1.44
		C28.456,58.844,28.165,59.673,28.165,60.793z"/>
	<path fill-rule="evenodd" clip-rule="evenodd" d="M41.125,62.953c0.098-2.898-2.009-3.592-2.641-5.76
		c1.492-0.169,2.162,2.447,3.36,3.359C41.697,61.446,42.298,63.087,41.125,62.953z"/>
	<path fill-rule="evenodd" clip-rule="evenodd" d="M71.845,60.553c-1.66,0.591-2.506-1.37-4.32-0.239
		c-0.511-0.85-1.047-1.673-2.16-1.92c-0.529,0.03-0.102,1.018-0.239,1.44c-0.041,0.521,0.851,0.109,1.199,0.24
		c-2.044,1.704-5.201,1.423-8.159,0.96c0.221-0.419,0.75-0.529,1.439-0.48c0.17-0.89-0.41-1.029-0.24-1.919
		c-1.85,0.07-2.015,1.825-3.84,1.919c1.821-4.357,11.841-4.362,14.4-0.72C70.776,59.861,71.858,59.66,71.845,60.553z M60.085,60.073
		c0.269,0.435,1.756,0.876,1.92,0c-0.818,0.018-0.711-0.889-0.721-1.68C60.219,58.287,59.979,59.007,60.085,60.073z M63.204,59.833
		c-0.258,1.352,2.087,0.553,1.681-0.48C63.958,59.401,64.239,60.485,63.204,59.833z"/>
	<path fill-rule="evenodd" clip-rule="evenodd" d="M34.645,57.673c0.098-0.598,0.931-0.015,0.72,0.48
		C35.049,58.068,34.987,57.73,34.645,57.673z"/>
	<path fill-rule="evenodd" clip-rule="evenodd" d="M80.244,57.673c0.279-0.039,0.428,0.053,0.48,0.24
		c0.819,3.458,1.625,8.126-0.72,10.561c0.391-3.1,1.615-5.931,0.239-8.88c-1.082,0.568-0.806,3.332-0.479,4.56
		c-0.817,0.018-0.895-0.706-1.2-1.2c-0.502,0.139-0.685,0.595-1.439,0.48C76.974,60.322,79.13,59.519,80.244,57.673z"/>
	<path fill-rule="evenodd" clip-rule="evenodd" d="M4.404,58.633c1.663,1.458,2.678,4.841,3.36,6.48
		c-0.594,0.565-0.938-0.472-1.2-0.96c-0.986,0.054-1.021,1.059-2.16,0.96c0.152-0.888,0.651-1.429,0.48-2.64
		c-1.538,0.447-1.086,3.063-0.96,4.56c0.162,1.919,0.738,4.028,1.2,5.04c-0.591,0.369-0.964-0.888-1.2-1.44
		c-0.501-1.174-0.463-2.131-0.72-3.84C2.881,64.645,2.907,60.5,4.404,58.633z"/>
	<path fill-rule="evenodd" clip-rule="evenodd" d="M69.444,61.033c0.468,1.83-3.553,3.259-5.04,2.4
		c0.149-0.78,1.189-0.539,1.681-0.721C67.272,62.274,68.473,61.596,69.444,61.033z"/>
	<path fill-rule="evenodd" clip-rule="evenodd" d="M50.005,61.513c0.213,0.106,0.429,0.211,0.479,0.48
		c-0.833,2.957,0.151,7.987,0,10.8c-1.149-0.877-1.128-2.947-1.2-5.04C49.206,65.474,49.458,63.146,50.005,61.513z"/>
	<path fill-rule="evenodd" clip-rule="evenodd" d="M36.325,62.713c-0.971,1.508-4.189,2.151-7.68,1.92
		c-1.071-0.07-2.869,0.404-2.88-0.96C29.774,64.651,33.564,62.898,36.325,62.713z"/>
	<path fill-rule="evenodd" clip-rule="evenodd" d="M54.324,62.953c0.24,0,0.48,0,0.721,0c0.554,1.926,3.357,1.602,4.319,3.12
		C56.624,66.094,55.088,64.909,54.324,62.953z"/>
	<path fill-rule="evenodd" clip-rule="evenodd" d="M75.925,64.873c1.808,0.673,1.6,3.36,2.88,4.561
		c-0.361,1.318-0.847,2.514-1.68,3.359c-0.315-0.244-0.885-0.235-1.2-0.479c0.019-1.74,1.396-2.877,1.2-4.561
		C76.984,66.559,75.506,66.049,75.925,64.873z"/>
	<path fill-rule="evenodd" clip-rule="evenodd" d="M8.004,66.073c0.114,1.604-1.273,1.666-1.44,2.88
		c-0.279,2.033,1.941,3.654,1.68,6.24c-1.406-0.915-2.729-1.911-2.88-4.08c0.501,0.102,0.635-0.165,0.96-0.24
		C5.644,68.817,5.771,66.4,8.004,66.073z"/>
	<path fill-rule="evenodd" clip-rule="evenodd" d="M51.444,72.073c1.668,1.293,3.198,2.722,3.601,5.28
		c0.665,0.454,1.315,0.924,1.92,1.439c-0.659,1.688-1.635,4.251-4.08,3.36c1.389-0.291,1.588-1.772,2.399-2.641
		c-1.143-2.376-2.467-4.572-4.08-6.479C51.174,72.603,51.498,72.527,51.444,72.073z"/>
	<path fill-rule="evenodd" clip-rule="evenodd" d="M78.564,72.553c0.192,0.919-0.343,3.173-2.16,2.881
		C76.6,73.948,78.147,73.815,78.564,72.553z"/>
	<path fill-rule="evenodd" clip-rule="evenodd" d="M5.845,75.193c1.312,0.288,1.107,2.092,3.12,1.68
		C8.634,79.591,5.378,77.029,5.845,75.193z"/>
	<path fill-rule="evenodd" clip-rule="evenodd" d="M35.845,76.394c0.388-0.068,0.413,0.227,0.72,0.239
		c-1.386,5.095-6.724,6.237-8.16,11.28c-2.414-2,0.576-4.35,2.16-5.76c0.862-0.767,1.516-1.694,1.92-1.92
		c0.364-0.204,0.676-0.013,0.96-0.24C34.763,78.939,35.243,77.79,35.845,76.394z"/>
	<path fill-rule="evenodd" clip-rule="evenodd" d="M45.444,82.153c-1.438,0.633-2.608-1.067-4.8-0.48
		C41.261,78.829,44.875,80.368,45.444,82.153z"/>
	<path fill-rule="evenodd" clip-rule="evenodd" d="M53.125,81.673c-3.77-0.584-4.48,3.679-8.16,1.681
		c2.104-0.742,4.837-0.909,6-3.12C52.271,80.127,53.383,80.215,53.125,81.673z"/>
	<path fill-rule="evenodd" clip-rule="evenodd" d="M39.444,81.673c0.741,0.06,1.356,0.244,1.92,0.48
		C41.066,82.59,39.141,82.634,39.444,81.673z"/>
	<path fill-rule="evenodd" clip-rule="evenodd" d="M67.284,81.673c1.202,0.445,0.183,1.746,0,2.4c-0.192,0.693-0.398,1.797-0.72,2.4
		c-0.477,0.895-1.699,1.421-2.16,2.399c-1.506,3.197-0.224,7.649-3.12,10.08c1.264-2.994,1.015-6.247,1.681-9.36
		c0.667-3.123,3.19-5.207,3.84-7.92C66.965,81.673,67.125,81.673,67.284,81.673z"/>
	<path fill-rule="evenodd" clip-rule="evenodd" d="M19.765,83.833c1.366,2.963,3.376,6.531,3.12,10.32
		c-0.751-1.267-1.345-2.972-1.92-4.561C20.294,87.741,19.473,85.585,19.765,83.833z"/>
	<path fill-rule="evenodd" clip-rule="evenodd" d="M57.925,88.394c0.494,1.345-1.237,2.014-2.16,2.64
		c-1.795,1.217-3.536,2.494-6.48,2.88c-6.631,0.87-15.559-0.911-18.72-4.32c1.951,0.174,4.696-1.338,7.68-1.92
		c1.444-0.281,3.519-0.745,5.04-0.72c1.071,0.018,2.062,0.632,3.12,0.72C50.285,87.997,54.504,86.473,57.925,88.394z M49.284,87.673
		c-0.759-0.039-0.802,0.639-1.68,0.48c-1.73,0.131-2.895-0.306-4.32-0.48c-2.319,0.264-4.115,0.766-6,1.2
		c-1.282,0.296-2.884,0.176-3.6,1.2c2.792-0.117,5.978-0.924,9.12-0.96c4.234-0.049,8.681,0.211,13.2-0.24
		C54.715,87.522,51.663,87.935,49.284,87.673z M49.765,90.073c-5.171,0.453-11.048-0.95-15.12,0.96c0.28,1.349,2.169,1.115,3.6,1.44
		c1.297,0.294,2.689,0.935,4.08,0.96c2.014,0.035,4.738-0.482,6.96-0.721c2.279-0.244,5.334-0.297,5.04-2.88
		C52.856,89.038,51.371,89.933,49.765,90.073z"/>
	<path fill-rule="evenodd" clip-rule="evenodd" d="M34.885,92.953c3.22,2.145,9.125,4.326,14.88,2.88
		c1.887-0.474,3.25-1.808,4.8-1.92c-0.467,0.686-1.33,1.073-2.16,1.68c-0.671,0.491-1.448,1.438-2.16,1.681
		c-1.818,0.618-4.735,0.477-6.72,0.239C39.862,97.076,36.178,94.725,34.885,92.953z"/>
	<path fill-rule="evenodd" clip-rule="evenodd" d="M51.685,100.873c-0.335,0.67-1.681,0.649-2.64,0.72
		c-1.813,0.133-3.931,0.187-5.28,0C45.056,100.163,49.424,100.534,51.685,100.873z"/>
	<path fill-rule="evenodd" clip-rule="evenodd" d="M68.725,14.233c0.633-0.27-0.322-0.93-0.48-1.2c2.238-0.181,5.591,1.528,6.96,3.6
		c0.107,0.161-0.117,0.568,0,0.72c0.754,0.968,2.154,1.766,2.641,3.12c0.933,2.6,1.646,5.824,2.64,8.88
		c0.704,2.165,1.784,3.873,1.44,6.48c-0.131,0.995-1.092,1.831-0.721,2.88c-0.477,0.399-0.305-0.022-0.96,0
		c1.135,2.007-0.454,5.506-0.72,8.64c-0.217,2.562,0.21,4.064-0.72,6.48c0.545,0.69,1.698,0.063,2.88,0.48
		c1.094,1.066,1.536,2.784,2.4,4.08c0.481-0.082,0.751,0.049,0.72,0.48c-0.214-0.187-0.542-0.258-0.96-0.24
		c0.383,1.958,1.021,3.62,0.72,5.28c-0.275,1.514-1.395,2.673-1.92,4.08c-0.17,0.455,0.156,1.002,0,1.44
		c-0.263,0.738-1.091,1.329-1.44,2.159c-0.143,0.342,0.125,0.851,0,1.2c-0.201,0.567-0.903,0.992-0.96,1.44
		c-0.024,0.201,0.332,0.533,0.24,0.96c-0.094,0.437-0.99,1.487-0.479,2.399c-1.242,1.782-2.405,3.422-5.04,2.641
		c-0.956,3.124-2.215,5.945-2.641,9.6c-0.192,0.127-0.39,0.251-0.72,0.24c-0.613,4.267-3.157,6.603-4.32,10.32
		c-1.301,0.518-1.783,2.19-2.88,3.359c-0.722,0.77-1.891,1.312-2.64,2.16c-1.193,1.351-2.066,2.905-3.36,4.08
		c-0.44,0.4-1.181,0.534-1.68,0.96c-1.282,1.093-2.678,3.257-4.56,3.84c-0.531,0.165-1.149-0.085-1.681,0
		c-0.311,0.051-0.596,0.438-0.96,0.48c-3.335,0.379-6.823-0.035-9.6-0.24c-0.905-0.066-1.821,0.288-2.64,0.24
		c-0.274-0.017-0.344-0.448-0.48-0.48c-0.571-0.134-2.851-0.347-3.6-0.72c-0.709-0.353-1.774-1.431-2.88-2.16
		c-1.044-0.688-2.454-1.271-3.12-1.92c-1.069-1.041-2.23-2.812-3.84-3.6c-0.096-0.624-0.716-0.725-0.72-1.44
		c-0.769-0.111-0.846-0.914-1.68-0.96c-4.13-5.55-8.647-10.713-9.12-19.92c-1.043-0.311-2.142,1.47-3.84,0.479
		c-0.007-0.004-0.738-0.707-0.96-0.96c-1.22-1.391-2.187-3.8-3.6-6.479c-2.062-3.912-3.86-6.609-3.36-12.48
		c0.22-2.575,1.116-8.48,1.92-9.6c0.884-1.23,3.124-1.485,4.56-1.2c-1.312-4.145-1.599-7.779-1.92-11.76
		c-0.129-1.595-0.673-3.009-0.72-4.56c-0.148-4.908,0.28-8.862,0.96-12.96c1.107-6.673,5.109-9.015,10.08-12.96
		c3.717-2.951,8.052-5.665,12-8.4c2.487,0.064,4.62-2.042,7.2-2.4c0.738-0.102,1.428,0.132,2.16,0
		c0.718-0.129,1.397-0.652,2.16-0.72c5.102-0.455,9.763,1.304,13.681,2.4c0.26-0.059,0.162-0.477,0.479-0.48
		c3.853,0.634,7.554,0.082,10.08,1.92c1.632,1.188,5.011,6.267,4.32,8.4c-1.968-1.072-1.568-4.512-3.601-5.52
		c-0.812,0.751,0.397,1.509,0.24,2.4c-0.767-0.033-0.529-1.071-0.96-1.44c-0.268,0.532,0.048,0.212-0.72,0.48
		c0.026,0.613,0.439,0.84,0.72,1.2c-0.717,0.07-2.029-1.326-3.12-1.68c-0.546,0.575,0.434,0.978,1.2,0.96
		c0.373,0.826,0.818,1.581,1.439,2.16c-0.453,0.668-0.969-0.612-1.92-0.24c-0.393,0.332,0.798,1.108,1.2,1.44
		c-1.359,0.235-2.448-1.869-4.32-1.92c-0.656-1.023-1.743-1.617-2.399-2.64c-1.613,0.093-1.726-1.314-2.88-1.68
		c0.95,2.171,3.525,4.793,6.479,5.76c-1.441,0.615-2.45-0.594-4.56-0.48c1.469,1.891,3.725,2.995,5.04,5.04
		c0.704-0.204-0.312-0.604,0-1.2c0.529,0.19,0.312,1.128,0.96,1.2c0.369-0.155-0.491-1.09-0.72-1.44
		c1.157,0.126,2.432,2.206,3.119,3.6c0.595-2.117-1.685-3.433-2.159-5.28c1.017-0.374,1.706,1.433,2.159,2.4
		c0.777,0.458,1.407,0.355,1.681,1.68c0.574-1.184-0.254-3.098-0.721-4.56c0.772,0.428,1.218,1.183,1.44,2.16
		c0.612-1.13,0.886,0.614,1.2,1.2c0.74-0.085-0.632-1.223,0.24-1.44c1.306,1.014,1.812,2.828,2.64,4.32
		c-1.51,0.741-2.326,4.803-5.04,4.32c-0.346,0.054-0.084,0.716-0.48,0.72c-0.531,0.132-0.342-0.458-0.72-0.48
		c-0.325,0.074-0.199,0.601-0.24,0.96c-0.481,0.082-0.751-0.049-0.72-0.48c-1.219,0.221-1.205,1.675-2.64,1.68
		c-0.292-1.492,0.544-1.856,0.479-3.12c-0.91,0.13-0.587,1.493-0.96,2.16c-0.325-0.074-0.199-0.601-0.239-0.96
		c-0.357,0.363-0.387,1.053-0.48,1.68c-0.589,0.588-1.384-0.521-1.44,0.479c-0.569-0.15,0.038-1.477-0.479-1.68
		c-0.654,0.226-0.55,1.21-0.72,1.92c-1.075-0.354-0.737,0.703-1.681,0.48c-0.543-1.217-0.125-3.395-1.199-4.08
		c-0.598,0.805,0.503,2.568,0,3.36c-1.102,0.546-3.178,1.044-4.32-0.479c-0.988,1.227-2.129,0.831-3.601,0
		c-0.551-4.489-4.999-5.081-6.479-8.64c1.394-0.429,1.931,2.065,3.36,2.4c0.111-2.248-1.852-3.277-2.881-5.04
		c1.603,0.32,2.982,2.937,5.04,3.6c0.571-0.071-0.267-0.649-0.479-0.72c0.526-0.665,0.983,0.76,1.68,0.72
		c0.415-0.745-1.57-1.142-1.68-2.16c1.09,0.669,2.321,1.199,3.6,1.68c0.65-0.217-0.202-0.884-0.479-0.96
		c0.762-0.432,1.559,1.154,2.399,1.44c-0.003-0.882-1.74-2.096-2.399-3.12c2.493-0.012,4.061,2.978,6,4.32
		c0.468-0.414-1.289-0.776-0.48-1.68c0.408-0.088,0.453,0.187,0.48,0.48c0.565-0.066-0.022-0.894-0.24-0.96
		c0.948,0.016,1.67,2.326,2.88,2.88c0.553-0.19-0.124-1.128-0.479-1.2c0.038-0.281,0.438-0.202,0.72-0.24
		c-0.643-1.038-1.139-2.222-2.16-2.88c0.25-0.156,1.839,0.391,2.16,0.96c0.497-0.436-0.509-1.398-0.96-1.68
		c0.82-0.094,1.758,1.758,2.16,2.88c1.055-0.669,0.626,0.766,1.439,0.96c0.064-1.108-1.098-3.059-1.92-4.08
		c0.007-0.233,0.294-0.187,0.48-0.24c-0.249-0.632-0.952-0.808-1.2-1.44c-1.464,0.264-1.985-0.415-2.88-0.72
		c-0.633-0.072-0.788,0.333-0.721,0.96c-0.597,0.037-0.742-0.377-1.199-0.48c-0.392,0.029,0.229,1.023,0.72,0.96
		c-1.176,0.29-2.871-0.965-4.08-1.44c-2.383,0.497-5.742,1.404-9.36,1.68c-1.33,0.102-2.68-0.107-3.84,0
		c-0.662,0.061-1.423,0.466-1.92,0.48c-0.228,0.006-0.945-1.242-0.96,0c-0.597,0.037-0.743-0.377-1.2-0.48
		c-0.908,1.165-2.723,1.046-4.08,0.96c1.416,0.812,3.299,1.934,5.04,1.68c0.995,1.277,2.361,1.47,3.12,2.4
		c0.401,0.491,0.214,1.085,0.72,1.44c0.136,0.095,0.305-0.416,0.24-0.48c0.78,0.771,0.981,1.563,1.92,2.16
		c-0.67-2.21-2.414-3.347-3.84-4.8c0.912-0.185,2.193,1.323,2.88,2.16c1.16-0.555-0.489-1.503-0.96-1.92
		c1.322-0.478-0.111-0.508,0-1.68c1.095,0.746,1.911,1.77,2.64,2.88c2.859,1.862,5.998,3.442,6.24,7.92
		c-1.176,0.136-1.705-0.375-2.159-0.96c-1.258,0.83-1.269-0.602-3.12,0c-0.686-0.595-1.464-1.096-2.4-1.44
		c-0.087,1.208,1.748,0.493,1.44,1.92c-1.278-0.082-2.1-0.62-2.88-1.2c-0.348,0.907,0.66,0.46,0.48,1.2
		c-1.01-0.916-1.53,0.477-2.64-0.479c-0.336,0.084-0.021,0.422,0.24,0.479c-1.425,0.461-3.215-0.781-4.32-1.44
		c-0.312,0.32-0.148,0.725,0.24,0.96c-0.244,0.795-1.744-0.84-1.44,0.72c-0.772-0.888-1.217,0.181-1.92,0
		c-1.887-0.486-2.392-3.552-5.52-3.12c0.028,1.572,1.96,1.24,2.88,1.92c-0.876,0.9,0.178,0.981,0.96,1.44
		c-1.79,2.45-5.625,2.855-7.68,5.04c0.379,0.979-0.549,1.973-0.96,2.88c0.2,3.72-1.67,5.369-1.68,8.88
		c-0.178,0.702-0.581,1.18-0.96,1.68c0.948,0.382,0.047,1.122,0.96,1.44c-0.224,0.736-0.748,1.173-0.96,1.92
		c0.358,0.792,0.283-0.803,0.96-0.48c0.065,1.585-0.936,2.104-1.44,3.12c0.359,0.946,1.001-1.025,1.2-0.24
		c-0.464,1.331-0.32,2.951-1.44,4.08c0.184,1.178,0.561,0.914,0,1.92c1.517-0.118-0.258,2.107,0.48,3.36
		c-0.582,0.378-1.025,0.896-2.16,0.72c-1.847-2.353-1.055-6.773-4.8-6.24c-0.439,0.062-1.867,1.116-2.16,1.68
		c-0.157,0.304-0.911,4.125-1.2,6.48c-0.367,2.987-0.504,6.656,0.48,9.6c1.064,3.184,3.231,6.716,4.56,8.88
		c1.385,2.257,2.442,3.867,5.04,2.16c-0.297-5.548-1.408-11.545-1.44-16.561c1.946,0.135,0.483,3.677,1.68,4.561
		c-0.104,2.71,0.38,7.433,0.72,10.08c0.591,4.598,1.449,8.982,3.12,12.96c0.791,1.883,2.569,4.295,4.08,6.24
		c3.205,4.124,8.096,7.979,12.48,11.52c0.984,0.794,2.579,2.031,4.08,2.4c4.192,1.029,13.586,1.384,18-1.681
		c2.66-1.847,5.147-4.964,7.92-7.92c1.264-1.347,2.418-2.722,3.6-4.319c1.057-1.429,2.378-3.062,3.12-4.561
		c1.691-3.416,2.334-7.414,3.6-11.28c0.036-0.108,0.448-0.157,0.48-0.239c1.163-2.98,1.921-7.157,1.92-11.521
		c0-0.876,0.014-1.872,0-2.88c-0.013-0.912-0.865-2.774,0.24-3.6c-0.086,4.614,0.802,8.097,0.239,12
		c0.656,1.022,2.296,1.778,3.36,0.239c0.74-1.07,0.506-2.798,0.96-4.56c0.796-3.087,3.712-7.881,4.08-10.32
		c0.586-3.886-1.17-7.459-2.64-8.88c-1.276,0.004-2.711-0.15-3.36,0.48c-0.188,0.933-0.328,1.911-0.96,2.4
		c-0.113,1.327,0.26,3.139-1.44,2.879c-0.057-2.854-0.677-5.75-0.96-8.16c0.388-0.067,0.413,0.227,0.721,0.24
		c0.211-0.771-0.791-0.329-0.721-0.96c0.402-1.231,0.318-1.085,0-2.4c0.278-1.216,0.945-1.413,0.48-2.88
		c-0.211-0.771,0.622-0.498,0.72-0.96c-0.822-1.884,0.698-4.12,0.48-6.24c-0.109-1.067-0.936-1.613-0.96-2.88
		c-0.936-0.825-1.688-1.832-1.92-3.36c1.622-1.682,3.501-0.811,6-1.68c0.076-0.557-0.039-0.922-0.24-1.2
		c-2.87,0.001-4.275,2.23-7.2,1.44c-0.66-1.66-1.537-3.103-3.12-3.84c0.127-0.193,0.251-0.39,0.24-0.72
		c-1.089-0.672-1.898-1.621-2.4-2.88c1.267-2.573,3.421-4.259,6.48-5.04c0.443-0.036,0.147-0.812,0.479-0.96
		c0.578-0.098,0.522,0.438,1.2,0.24c0.115-0.755-0.342-0.938-0.479-1.44c-1.496,0.216-2.263-0.298-2.88-0.96
		c-0.53,0.03-0.103,1.018-0.24,1.44c-0.38-0.564-0.782-0.292-0.96,0.24c-0.622-1.458-1.001-3.16-1.92-4.32
		C68.498,13.34,68.483,13.914,68.725,14.233z M63.204,5.353c0.632-0.071,0.189,0.931,0.961,0.72
		C64.266,5.544,63.445,4.75,63.204,5.353z M50.725,7.753c-0.565-0.128-0.146-1.135,0.24-0.479c-2.254-2.308-5.586-4.813-8.641-5.521
		c0.602,0.519,1.483,0.757,1.92,1.44c-1.01-0.324-1.675-0.811-1.68,0.24c-1.405-0.438-2.8-2.156-4.32-1.68
		c1.012,0.349,1.79,0.931,2.16,1.92c-0.24,0-0.285-0.194-0.479-0.24c1.116,1.281,2.346,2.117,3.359,3.36
		c0.935,1.146,1.506,2.881,2.881,2.88c-0.857-0.823-1.702-1.658-2.16-2.88c1.904,0.575,2.428,2.532,4.08,3.36
		c-0.427-1.894-2.229-2.412-2.881-4.08c1.103,0.738,1.833,1.847,3.12,2.4c-0.462-1.461-2.458-2.657-2.64-3.6
		c2.782,0.818,3.219,3.981,5.76,5.04c0.023-0.992-1.548-1.64-1.2-2.16C50.514,7.729,50.618,8.102,50.725,7.753z M39.925,3.913
		c-1.214,0.174-1.816-0.264-2.4-0.72c-0.399,0.754,0.893,0.98,0.24,1.2c-0.759,0.04-0.802-0.638-1.68-0.48
		c1.791,2.378,3.848,4.336,6.48,5.28c-0.006-1.28-1.997-1.835-1.68-2.64c1.062,1.097,2.112,2.208,3.12,3.36
		C43.963,7.535,41.067,5.985,39.925,3.913z M49.524,5.113C49.844,6.302,50.658,5.488,49.524,5.113L49.524,5.113z M38.484,10.633
		c-0.097-1.343-1.598-1.282-1.92-2.4c2.929,0.433,4.296,3.702,6.72,3.84c-3.471-2.433-5.105-6.93-10.56-6.72
		c-0.07,0.649,1.287,1.087,0.72,1.44c-0.553-0.577-0.773-0.366-1.68-0.24c0.03,0.664,0.458,0.824-0.24,0.48
		c1.02,1.861,3.3,2.46,4.8,3.84c0.814-0.581-1.153-1.061-0.48-1.44C36.502,10.031,37.455,9.964,38.484,10.633z M60.805,6.793
		c0.16,0,0.32,0,0.479,0c0-0.16,0-0.32,0-0.48c-0.159,0-0.319,0-0.479,0C60.805,6.473,60.805,6.633,60.805,6.793z M53.364,9.673
		c0.194-0.837-0.902-2.237-1.92-2.64C51.516,8.482,52.721,8.797,53.364,9.673z M34.645,12.073c-0.073-0.727-0.743-0.857-0.48-1.92
		c-0.81-0.79-2.455-0.746-3.6-1.2c-0.73,0.423,0.655,0.743,0,0.96c-0.218-0.421-0.841-0.439-1.2-0.72
		c-0.312,0.596,0.704,0.996,0,1.2c-0.878-0.839-1.568-0.592-2.88-0.72c-0.079,0.561-0.288,0.991-0.48,1.44
		c1.021,0.583,3.001,1.473,3.84,1.44c-0.353-0.459-1.883-0.981-1.44-1.44c0.632,0.775,1.768,0.116,2.4,0.48
		c0.317-0.601-0.949-0.751-0.24-0.96c1.174,0.192,1.981,2.012,2.88,1.68c-0.271-0.462-1.418-1.283-0.96-1.68
		C33.223,11.095,33.559,11.958,34.645,12.073z M25.765,11.353c-0.182-1.178-1.844-0.875-3.12-0.96
		C23.153,11.158,24.92,11.697,25.765,11.353z M21.444,12.073c0.808-0.152,2.229,0.309,2.64-0.24
		C23.688,11.612,21.443,11.146,21.444,12.073z M19.524,13.033c1.205-0.393,1.749,1.115,2.64,0.24c-0.28-0.041-0.261-0.38-0.24-0.72
		C21.03,13.066,19.758,12.271,19.524,13.033z M12.564,16.393c1.361,0.241,1.493-0.747,2.16-1.2c1.232-0.619,2.697,0.016,3.36-1.44
		C15.73,14.119,13.798,14.907,12.564,16.393z M28.165,20.713c0.349-1.87-1.867-1.173-2.16-2.4c0.906,0.455,1.986,0.734,2.88,1.2
		c-0.355-1.165-1.714-1.327-2.4-2.16c1.709,0.451,3.106,1.214,4.56,1.92c-1.213-2.707-4.55-3.291-7.44-4.32
		c-0.588,0.319,0.264,0.893-0.24,0.96c-0.563-0.077-0.901-0.379-1.68-0.24c0.205,0.835,1.523,0.557,1.92,1.2
		c-1.153,0.263-2.285-0.741-3.12,0C23.238,17.96,26.376,18.662,28.165,20.713z M11.365,17.593c0.292,0.027,0.568,0.072,0.48,0.48
		c-0.816,0.224-1.341,0.739-1.68,1.44c1.497-0.423,2.558-1.282,3.6-2.16C12.976,17.058,11.685,16.424,11.365,17.593z M18.084,21.433
		c1.959,0.325,2.89,1.392,5.04,0.96c0.748,0.143,1.37,1.657,2.16,0.96c-1.146-0.619-0.569-1.724-1.2-2.4
		c1.309,0.291,1.664,1.537,2.88,1.92c-0.858-3.622-4.494-4.465-7.92-5.52c-0.419,1.196-2.498-0.471-2.88,0.96
		c2.771-0.129,5.784,0.773,6.48,1.92c-0.604-0.938-4.586-1.328-4.8,0.24c0.706,0.254,1.59,0.33,2.16,0.72
		C19.008,21.235,18.685,20.778,18.084,21.433z M43.284,18.793c-0.404-0.098-1.078-1.13-1.439-0.48
		C42.272,18.388,42.785,19.583,43.284,18.793z M36.325,19.273c0.748,1.334,1.935,3.501,3.6,3.12c-0.607-0.021-0.7-1.027,0.24-0.72
		c-0.264-0.857-0.823-1.417-1.681-1.68c-0.154,1.035,1.007,0.753,0.96,1.68C37.797,21.481,37.652,19.786,36.325,19.273z
		 M44.965,20.713c0.455-0.452,0.028-1.248-0.48-1.44C44.488,19.91,44.352,20.687,44.965,20.713z M72.564,23.113
		c-0.851,0.039-2.205,0.82-1.68,1.44c1.08-1.538,3.753-0.359,5.52-1.44c-0.571-0.388-1.26-0.661-1.439-1.44
		C73.578,21.567,72.8,22.068,72.564,23.113z M73.045,19.513c-1.118,0.882-2.337,1.663-3.36,2.64
		C71.039,23.424,76.49,20.772,73.045,19.513z M9.444,22.633c1.086-0.255,1.611-1.229,2.64-1.68c0.478-0.209,1.359,0.174,1.44-0.72
		C10.728,19.608,8.74,20.359,9.444,22.633z M32.964,21.913c0.349-0.131,1.241,0.281,1.2-0.24c-0.774-0.195-1.307-1.881-1.92-1.44
		C32.587,20.691,32.802,21.275,32.964,21.913z M54.564,21.673c0.32,0,0.64,0,0.96,0c-0.234-0.566-0.077-1.522-0.96-1.44
		C54.444,20.988,55.088,21.171,54.564,21.673z M15.685,21.913c-0.013,0.413,0.185,0.615,0.48,0.72
		c-0.172-0.652,1.132,0.171,0.96-0.48C16.62,21.995,16.058,21.518,15.685,21.913z M47.604,23.833c0.468-0.538,0.129-1.725-0.72-1.68
		C47.047,22.791,47.263,23.375,47.604,23.833z M50.244,22.633c0.16,0,0.32,0,0.48,0c0-0.16,0-0.32,0-0.48c-0.16,0-0.32,0-0.48,0
		C50.244,22.313,50.244,22.473,50.244,22.633z M13.524,24.073c-0.324-0.076-0.458-0.342-0.96-0.24
		c-0.089,0.951-0.896,1.184-1.68,1.44c0.034-0.284,0.427-0.544,0-0.72c-0.158,0.719-0.513-0.229-0.96,0
		c-0.479,0.48-1.219,0.701-1.44,1.44c0.472,0.744,1.2-0.825,1.44-0.24c-0.308,0.315-0.308,0.885,0,1.2
		c1.104-0.023,0.992-0.812,1.44,0.24c0.924-1.017,1.312-1.896,3.36-2.16c-0.284-0.691-1.519-0.258-1.68-0.48
		C13.314,24.502,13.418,24.287,13.524,24.073z M76.885,24.553c-0.969-0.759-3.27-0.883-2.88,0.48
		c-0.104-0.387,0.895-0.805,0.96-0.24c-0.837,0.523-1.642,1.079-2.16,1.92c0.716,0.064,1.461-0.672,1.68,0.24
		c-0.413-0.013-0.615,0.185-0.72,0.48c0.81-0.63,2.787-0.093,3.36-0.96C76.156,25.885,77.433,25.386,76.885,24.553z M19.765,24.553
		C19.789,24.263,19.416,24.406,19.765,24.553L19.765,24.553z M13.044,26.473c0.896,0.096,1.408-0.192,1.44-0.96
		C13.896,25.724,13.101,25.729,13.044,26.473z M14.964,27.433c0.777-0.78,0.935,0.284,1.2,0.72c0.004-0.396,0.666-0.134,0.72-0.48
		c-0.337-0.063-0.274-0.526-0.48-0.72c0.704,0.274,0.892,0.142,1.2-0.48C16.921,25.977,14.729,27.037,14.964,27.433z M18.084,27.673
		c-0.269,0.051-0.374,0.266-0.48,0.48c0.816-0.314,1.675,0.535,1.92,0c-1.601-0.234,1.317-0.529,0.48-0.72
		c-0.807,0.25-2.699-0.442-2.16,0C17.991,27.447,18.129,27.469,18.084,27.673z M75.444,27.913c0.597,0.312,0.996-0.704,1.2,0
		c-1.25,0.03-1.354,1.205-2.4,1.44c-0.296,0.777,0.777,0.184,0.48,0.96c1.085-0.195,2.151-0.409,3.12-0.72
		c0.353-1.393-0.728-1.353-0.72-2.4C76.271,27.139,75.687,27.355,75.444,27.913z M14.725,27.673c-2.187,0.075-2.77,3.774-4.56,5.04
		c0.418-0.018,0.747,0.053,0.96,0.24c0.27-1.967,2.774-2.719,2.4-4.56C13.83,28.059,14.7,28.289,14.725,27.673z M14.245,28.873
		c0.731,0.012,1.222-0.218,1.44-0.72C14.935,27.787,14.497,28.15,14.245,28.873z M8.484,28.873c-0.9-0.238-0.523,1.179-1.2,0.48
		c0.098,0.579-0.438,0.522-0.24,1.2c0.331-0.01,0.527,0.113,0.72,0.24c0.308-0.572,0.459-1.3,1.2-1.44
		c-0.246-0.788-0.728-1.058,0-1.68c-0.807-0.167-0.787,0.493-1.2,0.72C8.048,28.51,8.309,28.649,8.484,28.873z M6.325,30.073
		c0.731-0.001,0.993-1.408,0-1.2C6.325,29.273,6.325,29.673,6.325,30.073z M10.645,37.753c1.601,0.29,2.005-1.969,1.2-2.64
		c0.565-1.057,2.475-2.984,1.44-4.08C11.914,32.783,11.508,35.496,10.645,37.753z M6.564,32.713c1.013,0.188,0.82-1.288,0-1.2
		C6.564,31.913,6.564,32.313,6.564,32.713z M77.604,32.233c0.477,1.327-2.095,0.478-2.4,1.68c1.305,0.335,2.479-0.709,3.12-0.24
		c-0.306,0.334-1.175,0.104-1.199,0.72c0.596,0.312,0.995-0.704,1.199,0c-0.021,0.62-1.027,0.252-0.72,1.2
		c0.729,0.328,1.628,0.036,2.4-0.24c0.102-1.999-0.304-2.061-0.96-3.36C78.311,31.819,78.339,32.407,77.604,32.233z M7.524,35.113
		c1.047-0.184,0.405-0.664,0.96-1.44c-0.32,0-0.64,0-0.96,0C7.524,34.153,7.524,34.633,7.524,35.113z M8.245,37.513
		c0.734,0.234,1.181-1.767,0.24-1.68C8.32,36.371,7.763,37.036,8.245,37.513z M78.085,38.233c0.557,0.192,1.362,0.769,1.92,0.24
		c-0.272-1.217-0.596-1.551,0-2.64c-1.161-0.04-1.751,0.49-2.4,0.96c0.313,0.615,1.271-0.557,1.44,0
		C78.362,36.911,78.195,37.544,78.085,38.233z M13.285,38.953c0.065-0.438,0.864-1.345,0.24-1.68
		C13.637,37.888,12.676,38.634,13.285,38.953z M78.324,39.433c0.359,0.381,1.368,0.351,1.2-0.48
		C78.93,38.918,78.36,38.909,78.324,39.433z M78.805,42.553c0.054,0.186,0.007,0.473,0.24,0.48c0.002-0.317,0.42-0.219,0.479-0.48
		C79.182,42.459,79.12,42.265,78.805,42.553z M78.085,44.473c0.627,0.068,1.032-0.087,0.96-0.72
		C78.417,43.686,78.013,43.841,78.085,44.473z M78.805,45.433c0-0.16,0-0.32,0-0.48C78.361,44.156,77.635,45.673,78.805,45.433z
		 M10.404,46.393c0.643,0.14,1.223-0.987,0.72-1.2C10.909,45.618,10.545,45.894,10.404,46.393z M76.404,45.673
		c0.454-0.106,1.446,0.326,1.2-0.48c-0.4,0-0.8,0-1.2,0C76.404,45.353,76.404,45.513,76.404,45.673z M8.964,46.393
		c0.547,0.067,0.902-0.058,0.96-0.48c-0.454,0.054-0.53-0.271-0.96-0.24C8.964,45.913,8.964,46.153,8.964,46.393z M78.085,47.833
		c-0.147-0.07-0.924-0.597-0.96,0C77.271,47.903,78.049,48.43,78.085,47.833z M11.125,49.273c-0.387,0.582-1.38,1.807-0.96,2.4
		c0.69-1.052,1.467-1.963,0.96-3.6c-0.675,0.045-1.022,0.417-0.96,1.2C10.711,49.603,11.067,48.654,11.125,49.273z M77.604,49.753
		c-0.146-0.653-0.659-0.94-1.439-0.96C76.082,49.676,77.039,49.519,77.604,49.753z M76.165,52.393c0.034-0.754-0.616-0.824-1.2-0.96
		C75.047,52.07,75.595,52.243,76.165,52.393z M11.125,52.873c0.237-0.19,0.915-1.128,0.48-1.2
		C11.312,51.944,10.636,54.004,11.125,52.873z"/>
	<path fill-rule="evenodd" clip-rule="evenodd" d="M40.885,74.474c-0.418,2.447-4.271,4.424-1.681,6.96
		C36.19,80.612,38.293,75.178,40.885,74.474z"/>
</g>
</svg>
